<svg width="25" height="25" viewBox="0 0 25 25" fill="none" xmlns="http://www.w3.org/2000/svg">
<circle cx="12.5" cy="12.5" r="12.5" fill="#508991"/>
<path d="M6.66666 18.0951V15.3967L15.0476 7.03158C15.1746 6.91518 15.3149 6.82523 15.4686 6.76174C15.6222 6.69825 15.7835 6.6665 15.9524 6.6665C16.1213 6.6665 16.2853 6.69825 16.4444 6.76174C16.6036 6.82523 16.7412 6.92047 16.8571 7.04746L17.7301 7.93635C17.8571 8.05275 17.9498 8.19031 18.0082 8.34904C18.0667 8.50777 18.0957 8.6665 18.0952 8.82523C18.0952 8.99455 18.0662 9.15603 18.0082 9.30968C17.9503 9.46333 17.8576 9.60344 17.7301 9.73L9.36507 18.0951H6.66666ZM15.9365 9.71412L16.8254 8.82523L15.9365 7.93635L15.0476 8.82523L15.9365 9.71412Z" fill="white"/>
</svg>
